<?xml version="1.0" encoding="UTF-8"?>
<svg xmlns="http://www.w3.org/2000/svg" xmlns:xlink="http://www.w3.org/1999/xlink" width="50pt" height="50pt" viewBox="0 0 50 50" version="1.1">
<g id="surface1">
<path style=" stroke:none;fill-rule:nonzero;fill:rgb(0%,0%,0%);fill-opacity:1;" d="M 25.046875 0.261719 C 22.796875 0.261719 20.9375 0.867188 19.242188 1.886719 C 19.214844 1.886719 19.214844 1.914062 19.214844 1.941406 C 19.214844 1.96875 19.242188 1.96875 19.269531 1.96875 C 21.4375 1.5 24.714844 3.34375 25.019531 3.535156 L 25.074219 3.535156 C 25.378906 3.34375 28.65625 1.5 30.824219 1.96875 C 30.851562 1.96875 30.878906 1.96875 30.878906 1.941406 C 30.878906 1.914062 30.878906 1.886719 30.851562 1.886719 C 29.15625 0.867188 27.296875 0.261719 25.046875 0.261719 Z M 32.496094 3.363281 C 31.945312 3.394531 30.664062 3.816406 28.101562 6.3125 L 28.074219 6.339844 C 28.074219 6.339844 28.074219 6.367188 28.101562 6.367188 C 30.351562 9.007812 34.6875 15.308594 33.851562 17.917969 L 33.851562 17.972656 C 33.878906 17.972656 33.90625 17.976562 33.90625 17.945312 C 35.324219 16.105469 36.1875 13.765625 36.1875 11.265625 C 36.1875 8.210938 34.9375 5.433594 32.878906 3.425781 C 32.851562 3.398438 32.851562 3.398438 32.824219 3.398438 C 32.78125 3.382812 32.679688 3.351562 32.496094 3.363281 Z M 17.585938 3.375 C 17.398438 3.367188 17.289062 3.40625 17.242188 3.425781 C 17.214844 3.425781 17.214844 3.453125 17.1875 3.453125 C 15.15625 5.460938 13.90625 8.238281 13.90625 11.292969 C 13.90625 13.792969 14.769531 16.132812 16.1875 17.972656 C 16.1875 18.003906 16.214844 18 16.242188 18 C 16.269531 18 16.269531 17.976562 16.242188 17.945312 C 15.378906 15.335938 19.742188 9.035156 21.992188 6.394531 L 22.019531 6.367188 C 22.019531 6.339844 22.019531 6.339844 21.992188 6.339844 C 19.429688 3.824219 18.148438 3.394531 17.585938 3.375 Z M 25.046875 9.117188 C 25.046875 9.117188 25.019531 9.117188 25.019531 9.144531 C 21.6875 11.648438 15.964844 17.863281 17.714844 19.625 C 19.65625 21.328125 22.242188 22.347656 25.046875 22.347656 C 27.851562 22.347656 30.40625 21.328125 32.378906 19.625 C 34.101562 17.863281 28.40625 11.648438 25.074219 9.144531 C 25.074219 9.117188 25.046875 9.117188 25.046875 9.117188 Z M 31.769531 25.484375 C 30.796875 25.484375 29.878906 25.648438 29.101562 25.949219 C 28.296875 26.28125 27.601562 26.746094 27.019531 27.378906 C 26.40625 28.011719 25.964844 28.785156 25.65625 29.609375 C 25.351562 30.433594 25.214844 31.394531 25.214844 32.414062 C 25.214844 33.429688 25.351562 34.394531 25.65625 35.21875 C 25.964844 36.042969 26.40625 36.785156 27.019531 37.417969 C 27.628906 38.050781 28.324219 38.519531 29.101562 38.847656 C 29.878906 39.152344 30.796875 39.316406 31.769531 39.316406 C 32.769531 39.316406 33.65625 39.179688 34.4375 38.847656 C 35.214844 38.546875 35.90625 38.050781 36.519531 37.417969 C 37.101562 36.785156 37.546875 36.042969 37.851562 35.21875 C 38.15625 34.394531 38.296875 33.429688 38.296875 32.414062 C 38.296875 31.367188 38.128906 30.433594 37.851562 29.609375 C 37.574219 28.785156 37.101562 28.011719 36.519531 27.378906 C 35.9375 26.746094 35.214844 26.253906 34.4375 25.949219 C 33.628906 25.648438 32.742188 25.484375 31.769531 25.484375 Z M 0.6875 25.785156 L 5.324219 32.136719 L 0.269531 39.042969 L 2.546875 39.042969 L 6.492188 33.679688 L 10.40625 39.042969 L 12.683594 39.042969 L 7.628906 32.136719 L 12.296875 25.785156 L 10.019531 25.785156 L 6.492188 30.597656 L 2.964844 25.785156 Z M 13.769531 25.785156 L 13.769531 31.421875 L 12.019531 31.421875 L 10.769531 33.128906 L 13.769531 33.128906 L 13.769531 39.042969 L 20.019531 39.042969 C 21.464844 39.042969 22.574219 38.683594 23.351562 38.023438 C 24.128906 37.363281 24.519531 36.429688 24.519531 35.273438 C 24.519531 34.558594 24.324219 33.898438 23.90625 33.375 C 23.519531 32.851562 22.964844 32.414062 22.214844 32.136719 C 23.378906 31.503906 23.964844 30.515625 23.964844 29.25 C 23.964844 28.234375 23.601562 27.378906 22.878906 26.746094 C 22.15625 26.117188 21.128906 25.785156 19.769531 25.785156 Z M 37.796875 25.785156 L 42.464844 32.136719 L 37.40625 39.042969 L 39.6875 39.042969 L 43.601562 33.679688 L 47.546875 39.042969 L 49.824219 39.042969 L 44.742188 32.136719 L 49.40625 25.785156 L 47.128906 25.785156 L 43.601562 30.597656 L 40.074219 25.785156 Z M 31.769531 27.296875 C 33.101562 27.296875 34.1875 27.765625 34.992188 28.671875 C 35.796875 29.582031 36.1875 30.847656 36.1875 32.414062 C 36.1875 33.980469 35.796875 35.21875 34.992188 36.125 C 34.1875 37.035156 33.101562 37.5 31.769531 37.5 C 30.40625 37.5 29.351562 37.035156 28.546875 36.125 C 27.742188 35.21875 27.324219 33.980469 27.324219 32.414062 C 27.324219 30.847656 27.742188 29.609375 28.546875 28.671875 C 29.351562 27.765625 30.4375 27.296875 31.769531 27.296875 Z M 15.796875 27.519531 L 19.628906 27.519531 C 20.378906 27.519531 20.964844 27.683594 21.351562 28.011719 C 21.769531 28.34375 21.964844 28.8125 21.964844 29.386719 C 21.964844 30.074219 21.769531 30.597656 21.378906 30.929688 C 20.992188 31.285156 20.40625 31.449219 19.628906 31.449219 L 15.796875 31.449219 Z M 15.796875 33.128906 L 19.9375 33.128906 C 20.769531 33.128906 21.40625 33.292969 21.824219 33.652344 C 22.242188 33.980469 22.464844 34.53125 22.464844 35.21875 C 22.464844 35.878906 22.242188 36.402344 21.796875 36.757812 C 21.351562 37.089844 20.714844 37.28125 19.90625 37.28125 L 15.796875 37.28125 Z M 5.964844 44.210938 C 5.378906 44.210938 4.90625 44.351562 4.574219 44.597656 C 4.242188 44.84375 4.074219 45.203125 4.074219 45.640625 C 4.074219 46.082031 4.214844 46.414062 4.492188 46.660156 C 4.769531 46.90625 5.1875 47.101562 5.742188 47.210938 L 6.1875 47.320312 C 6.628906 47.429688 6.964844 47.539062 7.128906 47.648438 C 7.296875 47.789062 7.378906 47.953125 7.378906 48.171875 C 7.378906 48.449219 7.269531 48.667969 7.074219 48.832031 C 6.851562 48.96875 6.546875 49.050781 6.15625 49.050781 C 5.6875 49.050781 5.324219 48.941406 5.074219 48.75 C 4.824219 48.558594 4.714844 48.253906 4.714844 47.871094 L 3.9375 47.871094 C 3.9375 48.476562 4.128906 48.941406 4.546875 49.273438 C 4.9375 49.601562 5.492188 49.738281 6.1875 49.738281 C 6.824219 49.738281 7.351562 49.601562 7.714844 49.328125 C 8.074219 49.050781 8.269531 48.640625 8.269531 48.171875 C 8.269531 47.761719 8.128906 47.429688 7.851562 47.183594 C 7.574219 46.933594 7.128906 46.742188 6.519531 46.632812 L 6.046875 46.523438 C 5.601562 46.441406 5.296875 46.300781 5.128906 46.191406 C 4.964844 46.082031 4.878906 45.890625 4.878906 45.640625 C 4.878906 45.394531 4.964844 45.230469 5.15625 45.09375 C 5.351562 44.953125 5.601562 44.898438 5.964844 44.898438 C 6.40625 44.898438 6.742188 44.980469 6.9375 45.148438 C 7.128906 45.3125 7.242188 45.558594 7.269531 45.890625 L 8.101562 45.890625 C 8.101562 45.367188 7.90625 44.953125 7.546875 44.652344 C 7.1875 44.347656 6.65625 44.210938 5.964844 44.210938 Z M 34.742188 44.210938 C 34.15625 44.210938 33.6875 44.351562 33.351562 44.597656 C 33.019531 44.84375 32.851562 45.203125 32.851562 45.640625 C 32.851562 46.082031 32.992188 46.414062 33.269531 46.660156 C 33.546875 46.90625 33.964844 47.101562 34.519531 47.210938 L 34.964844 47.320312 C 35.40625 47.429688 35.742188 47.539062 35.90625 47.648438 C 36.074219 47.789062 36.15625 47.953125 36.15625 48.171875 C 36.15625 48.449219 36.046875 48.667969 35.851562 48.832031 C 35.628906 48.96875 35.324219 49.050781 34.9375 49.050781 C 34.464844 49.050781 34.101562 48.941406 33.851562 48.75 C 33.601562 48.558594 33.492188 48.253906 33.492188 47.871094 L 32.683594 47.871094 C 32.683594 48.476562 32.878906 48.941406 33.296875 49.273438 C 33.6875 49.601562 34.242188 49.738281 34.9375 49.738281 C 35.574219 49.738281 36.101562 49.601562 36.464844 49.328125 C 36.824219 49.050781 37.019531 48.640625 37.019531 48.171875 C 37.074219 47.761719 36.9375 47.429688 36.65625 47.183594 C 36.378906 46.933594 35.933594 46.742188 35.324219 46.632812 L 34.851562 46.523438 C 34.40625 46.441406 34.101562 46.300781 33.933594 46.191406 C 33.769531 46.082031 33.6875 45.890625 33.6875 45.640625 C 33.6875 45.394531 33.769531 45.230469 33.964844 45.09375 C 34.15625 44.953125 34.40625 44.898438 34.769531 44.898438 C 35.214844 44.898438 35.546875 44.980469 35.742188 45.148438 C 35.933594 45.3125 36.046875 45.558594 36.074219 45.890625 L 36.878906 45.890625 C 36.878906 45.367188 36.6875 44.953125 36.324219 44.652344 C 35.964844 44.347656 35.4375 44.210938 34.742188 44.210938 Z M 10.464844 44.351562 L 10.464844 49.65625 L 14.269531 49.65625 L 14.269531 48.914062 L 11.269531 48.914062 L 11.269531 47.292969 L 13.933594 47.292969 L 13.933594 46.605469 L 11.269531 46.605469 L 11.269531 45.066406 L 14.269531 45.066406 L 14.269531 44.351562 Z M 16.601562 44.351562 L 16.601562 49.65625 L 17.40625 49.65625 L 17.40625 47.484375 L 18.964844 47.484375 C 19.269531 47.484375 19.492188 47.566406 19.628906 47.703125 C 19.769531 47.84375 19.851562 48.089844 19.851562 48.417969 L 19.878906 48.996094 C 19.878906 49.300781 19.933594 49.519531 20.046875 49.683594 L 20.878906 49.683594 C 20.796875 49.492188 20.742188 49.273438 20.714844 48.996094 L 20.65625 48.171875 C 20.65625 47.871094 20.574219 47.648438 20.464844 47.457031 C 20.351562 47.292969 20.15625 47.15625 19.90625 47.101562 C 20.183594 47.015625 20.40625 46.851562 20.546875 46.632812 C 20.714844 46.410156 20.796875 46.136719 20.796875 45.808594 C 20.796875 45.339844 20.628906 44.980469 20.296875 44.734375 C 19.964844 44.488281 19.519531 44.351562 18.933594 44.351562 Z M 23.214844 44.351562 L 23.214844 49.65625 L 24.019531 49.65625 L 24.019531 44.351562 Z M 26.714844 44.351562 L 26.714844 49.65625 L 30.546875 49.65625 L 30.546875 48.914062 L 27.519531 48.914062 L 27.519531 47.292969 L 30.183594 47.292969 L 30.183594 46.605469 L 27.519531 46.605469 L 27.519531 45.066406 L 30.546875 45.066406 L 30.546875 44.351562 Z M 41.296875 44.351562 L 43.15625 46.878906 L 41.128906 49.65625 L 42.046875 49.65625 L 43.601562 47.511719 L 45.183594 49.65625 L 46.101562 49.65625 L 44.074219 46.878906 L 45.9375 44.351562 L 45.019531 44.351562 L 43.601562 46.273438 L 42.214844 44.351562 Z M 17.464844 45.039062 L 18.90625 45.039062 C 19.242188 45.039062 19.519531 45.121094 19.6875 45.257812 C 19.851562 45.394531 19.964844 45.613281 19.964844 45.890625 C 19.964844 46.164062 19.878906 46.414062 19.714844 46.550781 C 19.546875 46.714844 19.296875 46.796875 18.992188 46.796875 L 17.464844 46.796875 Z M 17.464844 45.039062 "/>
</g>
</svg>
