<?xml version="1.0" encoding="UTF-8"?>
<svg xmlns="http://www.w3.org/2000/svg" xmlns:xlink="http://www.w3.org/1999/xlink" width="100pt" height="21pt" viewBox="0 0 100 21" version="1.1">
<defs>
<clipPath id="clip1">
  <path d="M 10.050781 0 L 21.167969 0 L 21.167969 20.867188 L 10.050781 20.867188 Z M 10.050781 0 "/>
</clipPath>
</defs>
<g id="surface1">
<path style=" stroke:none;fill-rule:nonzero;fill:rgb(34.509804%,34.901961%,35.686275%);fill-opacity:1;" d="M 97.71875 16.519531 L 97.242188 16.519531 L 97.242188 16.355469 L 98.371094 16.355469 L 98.371094 16.519531 L 97.902344 16.519531 L 97.902344 17.800781 L 97.71875 17.800781 "/>
<path style=" stroke:none;fill-rule:nonzero;fill:rgb(34.509804%,34.901961%,35.686275%);fill-opacity:1;" d="M 99.136719 17.800781 L 98.746094 16.628906 L 98.746094 17.800781 L 98.558594 17.800781 L 98.558594 16.355469 L 98.820312 16.355469 L 99.230469 17.585938 L 99.644531 16.355469 L 99.90625 16.355469 L 99.90625 17.800781 L 99.71875 17.800781 L 99.71875 16.628906 L 99.324219 17.800781 "/>
<path style=" stroke:none;fill-rule:nonzero;fill:rgb(34.509804%,34.901961%,35.686275%);fill-opacity:1;" d="M 75.910156 4.941406 L 67.527344 4.941406 C 65.097656 4.941406 63.90625 6.445312 63.90625 8.402344 L 63.90625 14.347656 C 63.90625 15.558594 63.335938 16.429688 62.128906 16.429688 L 54.25 16.429688 C 54.203125 16.429688 54.160156 16.472656 54.160156 16.519531 L 54.160156 17.714844 C 54.160156 17.765625 54.203125 17.808594 54.25 17.808594 L 63.039062 17.808594 C 65.46875 17.808594 66.660156 16.308594 66.660156 14.351562 L 66.660156 8.398438 C 66.660156 7.1875 67.234375 6.316406 68.441406 6.316406 L 75.910156 6.316406 C 75.957031 6.316406 75.996094 6.273438 75.996094 6.222656 L 75.996094 5.03125 C 75.996094 4.980469 75.957031 4.941406 75.910156 4.941406 "/>
<path style=" stroke:none;fill-rule:nonzero;fill:rgb(34.509804%,34.901961%,35.686275%);fill-opacity:1;" d="M 51.152344 4.945312 L 35.992188 4.941406 C 35.941406 4.941406 35.902344 4.984375 35.902344 5.03125 L 35.902344 6.226562 C 35.902344 6.277344 35.941406 6.316406 35.992188 6.316406 L 50.242188 6.316406 C 51.449219 6.316406 52.023438 7.191406 52.023438 8.402344 C 52.023438 9.613281 51.449219 10.484375 50.242188 10.484375 L 38.96875 10.484375 C 37.21875 10.484375 35.902344 11.960938 35.902344 13.917969 L 35.902344 17.714844 C 35.902344 17.765625 35.941406 17.808594 35.992188 17.808594 L 38.5625 17.808594 C 38.613281 17.808594 38.652344 17.765625 38.652344 17.714844 L 38.652344 13.917969 C 38.652344 12.707031 39.347656 11.859375 40.347656 11.859375 L 51.152344 11.859375 C 53.582031 11.859375 54.773438 10.359375 54.773438 8.402344 C 54.773438 6.449219 53.582031 4.945312 51.152344 4.945312 "/>
<path style=" stroke:none;fill-rule:nonzero;fill:rgb(34.509804%,34.901961%,35.686275%);fill-opacity:1;" d="M 90.382812 14.960938 C 90.382812 15.011719 90.339844 15.054688 90.292969 15.054688 L 78.265625 15.054688 C 78.167969 15.054688 78.117188 15.03125 78.101562 14.992188 C 78.085938 14.933594 78.117188 14.894531 78.191406 14.84375 L 90.160156 7.449219 C 90.242188 7.398438 90.382812 7.40625 90.382812 7.570312 Z M 95.800781 15.058594 L 93.136719 15.054688 L 93.230469 15.054688 C 93.179688 15.054688 93.136719 15.011719 93.136719 14.964844 L 93.136719 6.308594 C 93.136719 4.980469 92.222656 4.546875 90.933594 5.34375 L 75.484375 14.863281 C 74.878906 15.238281 74.671875 15.664062 74.820312 15.972656 C 74.945312 16.242188 75.28125 16.429688 75.949219 16.429688 L 90.296875 16.429688 C 90.335938 16.433594 90.371094 16.460938 90.378906 16.5 L 90.378906 17.714844 C 90.378906 17.765625 90.421875 17.808594 90.46875 17.808594 L 93.050781 17.808594 C 93.097656 17.808594 93.140625 17.765625 93.140625 17.714844 L 93.140625 16.523438 C 93.140625 16.472656 93.179688 16.429688 93.230469 16.429688 L 95.800781 16.429688 C 95.851562 16.429688 95.894531 16.390625 95.894531 16.339844 L 95.894531 15.148438 C 95.894531 15.097656 95.851562 15.058594 95.800781 15.058594 "/>
<g clip-path="url(#clip1)" clip-rule="nonzero">
<path style=" stroke:none;fill-rule:nonzero;fill:rgb(34.509804%,34.901961%,35.686275%);fill-opacity:1;" d="M 10.078125 0 L 10.078125 19.46875 L 14.46875 20.867188 L 14.46875 4.539062 C 14.46875 3.773438 14.808594 3.261719 15.355469 3.441406 C 16.074219 3.640625 16.210938 4.34375 16.210938 5.109375 L 16.210938 11.628906 C 18.949219 12.957031 21.105469 11.628906 21.105469 8.128906 C 21.105469 4.539062 19.84375 2.945312 16.125 1.660156 C 14.664062 1.167969 11.945312 0.347656 10.078125 0 "/>
</g>
<path style=" stroke:none;fill-rule:nonzero;fill:rgb(34.509804%,34.901961%,35.686275%);fill-opacity:1;" d="M 15.300781 18.023438 L 22.363281 15.5 C 23.164062 15.210938 23.285156 14.800781 22.636719 14.589844 C 21.984375 14.375 20.808594 14.4375 20.007812 14.726562 L 15.300781 16.390625 L 15.300781 13.742188 L 15.570312 13.652344 C 15.570312 13.652344 16.929688 13.167969 18.839844 12.953125 C 20.753906 12.746094 23.097656 12.980469 24.933594 13.683594 C 27.003906 14.339844 27.238281 15.304688 26.710938 15.972656 C 26.183594 16.636719 24.894531 17.117188 24.894531 17.117188 L 15.300781 20.574219 "/>
<path style=" stroke:none;fill-rule:nonzero;fill:rgb(34.509804%,34.901961%,35.686275%);fill-opacity:1;" d="M 2.023438 17.753906 C -0.101562 17.152344 -0.457031 15.90625 0.511719 15.183594 C 1.410156 14.515625 2.933594 14.015625 2.933594 14.015625 L 9.226562 11.773438 L 9.226562 14.332031 L 4.695312 15.957031 C 3.894531 16.246094 3.773438 16.652344 4.421875 16.867188 C 5.074219 17.082031 6.25 17.019531 7.054688 16.730469 L 9.226562 15.941406 L 9.226562 18.230469 C 9.085938 18.253906 8.933594 18.277344 8.792969 18.300781 C 6.621094 18.65625 4.304688 18.507812 2.023438 17.753906 "/>
<path style=" stroke:none;fill-rule:nonzero;fill:rgb(34.509804%,34.901961%,35.686275%);fill-opacity:1;" d="M 25.316406 20.832031 C 25.589844 20.832031 25.847656 20.726562 26.042969 20.53125 C 26.234375 20.335938 26.339844 20.078125 26.339844 19.800781 C 26.339844 19.527344 26.234375 19.269531 26.042969 19.074219 C 25.847656 18.875 25.589844 18.769531 25.316406 18.769531 C 24.746094 18.769531 24.289062 19.234375 24.289062 19.800781 C 24.289062 20.078125 24.394531 20.335938 24.589844 20.53125 C 24.78125 20.726562 25.039062 20.832031 25.316406 20.832031 M 24.460938 19.800781 C 24.460938 19.574219 24.546875 19.359375 24.710938 19.195312 C 24.871094 19.03125 25.085938 18.945312 25.316406 18.945312 C 25.542969 18.945312 25.757812 19.03125 25.917969 19.195312 C 26.082031 19.359375 26.167969 19.574219 26.167969 19.800781 C 26.167969 20.277344 25.785156 20.660156 25.316406 20.660156 C 25.085938 20.660156 24.871094 20.570312 24.710938 20.40625 C 24.546875 20.246094 24.460938 20.03125 24.460938 19.800781 "/>
<path style=" stroke:none;fill-rule:nonzero;fill:rgb(34.509804%,34.901961%,35.686275%);fill-opacity:1;" d="M 25.820312 20.28125 C 25.804688 20.277344 25.792969 20.257812 25.785156 20.230469 C 25.785156 20.210938 25.777344 20.183594 25.777344 20.144531 L 25.769531 19.996094 C 25.769531 19.925781 25.757812 19.875 25.730469 19.84375 C 25.714844 19.824219 25.6875 19.800781 25.664062 19.785156 C 25.699219 19.765625 25.726562 19.738281 25.75 19.703125 C 25.777344 19.65625 25.792969 19.597656 25.792969 19.527344 C 25.792969 19.390625 25.738281 19.296875 25.625 19.246094 C 25.566406 19.21875 25.492188 19.207031 25.410156 19.207031 L 24.875 19.207031 L 24.875 20.355469 L 25.074219 20.355469 L 25.074219 19.882812 L 25.386719 19.882812 C 25.441406 19.882812 25.488281 19.894531 25.511719 19.902344 C 25.550781 19.921875 25.570312 19.960938 25.574219 20.027344 L 25.585938 20.207031 C 25.585938 20.25 25.589844 20.28125 25.589844 20.296875 C 25.59375 20.316406 25.597656 20.328125 25.605469 20.339844 L 25.613281 20.355469 L 25.835938 20.355469 L 25.835938 20.289062 L 25.820312 20.28125 M 25.59375 19.542969 C 25.59375 19.605469 25.578125 19.648438 25.542969 19.675781 C 25.507812 19.699219 25.457031 19.710938 25.394531 19.710938 L 25.074219 19.710938 L 25.074219 19.386719 L 25.410156 19.386719 C 25.457031 19.386719 25.492188 19.390625 25.523438 19.40625 C 25.570312 19.429688 25.59375 19.472656 25.59375 19.542969 "/>
</g>
</svg>
