<?xml version="1.0" encoding="UTF-8"?>
<svg xmlns="http://www.w3.org/2000/svg" xmlns:xlink="http://www.w3.org/1999/xlink" width="102pt" height="23pt" viewBox="0 0 102 23" version="1.1">
<g id="surface1">
<path style=" stroke:none;fill-rule:evenodd;fill:rgb(0%,0%,0%);fill-opacity:1;" d="M 69.960938 4.535156 C 67.878906 4.535156 66.1875 6.226562 66.1875 8.3125 L 66.1875 14.753906 C 66.1875 15.933594 65.234375 16.890625 64.054688 16.890625 L 56.796875 16.890625 L 56.796875 18.488281 L 65.429688 18.488281 C 67.515625 18.488281 69.203125 16.800781 69.203125 14.714844 L 69.203125 8.269531 C 69.203125 7.09375 70.15625 6.136719 71.335938 6.136719 L 78.730469 6.136719 L 78.730469 4.535156 Z M 69.960938 4.535156 "/>
<path style=" stroke:none;fill-rule:evenodd;fill:rgb(0%,0%,0%);fill-opacity:1;" d="M 37.425781 4.535156 L 37.425781 6.136719 L 52.585938 6.136719 C 53.796875 6.136719 54.777344 7.117188 54.777344 8.328125 C 54.777344 9.539062 53.796875 10.519531 52.585938 10.519531 L 41.195312 10.519531 C 39.113281 10.519531 37.425781 12.210938 37.425781 14.292969 L 37.425781 18.488281 L 40.4375 18.488281 L 40.4375 14.253906 C 40.4375 13.074219 41.390625 12.117188 42.570312 12.117188 L 54.003906 12.117188 C 56.09375 12.117188 57.789062 10.421875 57.789062 8.328125 C 57.789062 6.234375 56.09375 4.535156 54.003906 4.535156 Z M 37.425781 4.535156 "/>
<path style=" stroke:none;fill-rule:evenodd;fill:rgb(0%,0%,0%);fill-opacity:1;" d="M 81.632812 4.535156 L 81.632812 9.746094 C 81.632812 11.054688 82.695312 12.117188 84 12.117188 L 96.621094 12.117188 C 97.9375 12.117188 99.003906 13.1875 99.003906 14.503906 C 99.003906 15.824219 97.9375 16.890625 96.621094 16.890625 L 81.632812 16.890625 L 81.632812 18.488281 L 98.035156 18.488281 C 100.234375 18.488281 102.019531 16.707031 102.019531 14.503906 C 102.019531 12.304688 100.234375 10.519531 98.035156 10.519531 L 85.597656 10.519531 C 85.074219 10.519531 84.648438 10.09375 84.648438 9.566406 L 84.648438 6.136719 L 101.472656 6.136719 L 101.472656 4.535156 Z M 81.632812 4.535156 "/>
<path style=" stroke:none;fill-rule:nonzero;fill:rgb(0%,0%,0%);fill-opacity:1;" d="M 11.152344 0 L 11.152344 21.5 L 16.011719 23.042969 L 16.011719 5.011719 C 16.011719 4.167969 16.390625 3.601562 16.996094 3.800781 C 17.789062 4.019531 17.945312 4.796875 17.945312 5.640625 L 17.945312 12.84375 C 20.972656 14.304688 23.359375 12.839844 23.359375 8.976562 C 23.359375 5.011719 21.960938 3.25 17.847656 1.835938 C 16.230469 1.289062 13.222656 0.382812 11.152344 0 "/>
<path style=" stroke:none;fill-rule:nonzero;fill:rgb(0%,0%,0%);fill-opacity:1;" d="M 16.933594 19.902344 L 24.75 17.113281 C 25.636719 16.796875 25.773438 16.34375 25.050781 16.109375 C 24.332031 15.875 23.03125 15.941406 22.144531 16.257812 L 16.933594 18.097656 L 16.933594 15.175781 L 17.234375 15.074219 C 17.234375 15.074219 18.738281 14.539062 20.855469 14.304688 C 22.96875 14.074219 25.5625 14.335938 27.59375 15.109375 C 29.890625 15.835938 30.144531 16.902344 29.566406 17.636719 C 28.980469 18.375 27.554688 18.898438 27.554688 18.898438 L 16.933594 22.71875 Z M 16.933594 19.902344 "/>
<path style=" stroke:none;fill-rule:nonzero;fill:rgb(0%,0%,0%);fill-opacity:1;" d="M 2.238281 19.605469 C -0.113281 18.941406 -0.503906 17.5625 0.566406 16.765625 C 1.558594 16.03125 3.246094 15.476562 3.246094 15.476562 L 10.210938 13 L 10.210938 15.824219 L 5.199219 17.621094 C 4.3125 17.9375 4.175781 18.390625 4.894531 18.625 C 5.617188 18.859375 6.917969 18.792969 7.808594 18.472656 L 10.210938 17.601562 L 10.210938 20.132812 C 10.058594 20.15625 9.890625 20.183594 9.734375 20.210938 C 7.328125 20.601562 4.765625 20.4375 2.238281 19.605469 "/>
</g>
</svg>
